<?xml version="1.0" encoding="UTF-8" standalone="no"?>
<!-- Created with Inkscape (http://www.inkscape.org/) -->
<svg
   xmlns:dc="http://purl.org/dc/elements/1.1/"
   xmlns:cc="http://web.resource.org/cc/"
   xmlns:rdf="http://www.w3.org/1999/02/22-rdf-syntax-ns#"
   xmlns:svg="http://www.w3.org/2000/svg"
   xmlns="http://www.w3.org/2000/svg"
   xmlns:sodipodi="http://sodipodi.sourceforge.net/DTD/sodipodi-0.dtd"
   xmlns:inkscape="http://www.inkscape.org/namespaces/inkscape"
   id="svg2"
   sodipodi:version="0.32"
   inkscape:version="0.45"
   width="100"
   height="100"
   version="1.0"
   sodipodi:docbase="D:\Datos\Proyectos\SIBOL\src\resources\svg"
   sodipodi:docname="d1.svg"
   inkscape:output_extension="org.inkscape.output.svg.inkscape"
   sodipodi:modified="true">
  <metadata
     id="metadata7">
    <rdf:RDF>
      <cc:Work
         rdf:about="">
        <dc:format>image/svg+xml</dc:format>
        <dc:type
           rdf:resource="http://purl.org/dc/dcmitype/StillImage" />
      </cc:Work>
    </rdf:RDF>
  </metadata>
  <defs
     id="defs5" />
  <sodipodi:namedview
     inkscape:window-height="822"
     inkscape:window-width="1284"
     inkscape:pageshadow="2"
     inkscape:pageopacity="0.0"
     borderopacity="1.0"
     bordercolor="#666666"
     pagecolor="#ffffff"
     id="base"
     showgrid="true"
     inkscape:grid-bbox="true"
     inkscape:grid-points="true"
     gridspacingx="2px"
     gridspacingy="2px"
     gridtolerance="0.5px"
     guidetolerance="0.5px"
     inkscape:guide-points="true"
     inkscape:zoom="6.19"
     inkscape:cx="50.038772"
     inkscape:cy="30.560001"
     inkscape:window-x="44"
     inkscape:window-y="96"
     inkscape:current-layer="svg2" />
  <path
     d="M 50.274134,50 L 41.595334,32.18"
     id="path280"
     style="fill:none;fill-rule:evenodd;stroke:black;stroke-width:1;stroke-linecap:round;stroke-linejoin:round;stroke-miterlimit:4;stroke-dasharray:none"
     sodipodi:nodetypes="cc" />
  <path
     d="M 50.274134,32.18 L 50.274134,0.5"
     id="path282"
     style="fill:none;fill-rule:evenodd;stroke:black;stroke-width:1;stroke-linecap:round;stroke-linejoin:round;stroke-miterlimit:4;stroke-dasharray:none"
     sodipodi:nodetypes="cc" />
  <path
     d="M 42.168634,90.682 L 41.507434,91.019 L 40.846334,91.693 L 40.515734,92.366 L 40.185134,93.376 L 40.185134,95.098 L 40.515734,96.108 L 40.846334,96.782 L 41.507434,97.455 L 42.168634,97.792 L 43.490834,97.792 L 44.152034,97.455 L 44.849934,96.782 L 45.180434,96.108 L 45.511034,95.098 L 45.511034,93.376 L 45.180434,92.366 L 44.849934,91.693 L 44.152034,91.019 L 43.490834,90.682 L 42.168634,90.682 z "
     id="path284"
     style="fill:none;fill-rule:evenodd;stroke:red;stroke-width:1;stroke-linecap:round;stroke-linejoin:round;stroke-miterlimit:4;stroke-dasharray:none" />
  <path
     d="M 45.511034,26.547 L 45.511034,19.438"
     id="path286"
     style="fill:none;fill-rule:evenodd;stroke:red;stroke-width:1;stroke-linecap:round;stroke-linejoin:round;stroke-miterlimit:4;stroke-dasharray:none" />
  <path
     d="M 50.274134,99.5 L 50.274134,50.033"
     id="path288"
     style="fill:none;fill-rule:evenodd;stroke:black;stroke-width:1;stroke-linecap:round;stroke-linejoin:round;stroke-miterlimit:4;stroke-dasharray:none"
     sodipodi:nodetypes="cc" />
  <path
     d="M 33.941034,41.215 L 33.941034,46.304"
     id="path290"
     style="fill:none;fill-rule:evenodd;stroke:#000000;stroke-width:1;stroke-linecap:round;stroke-linejoin:round;stroke-miterlimit:4;stroke-dasharray:none;stroke-opacity:1" />
  <path
     d="M 33.941034,49.26 L 33.941034,55.21"
     id="path292"
     style="fill:none;fill-rule:evenodd;stroke:#000000;stroke-width:1;stroke-linecap:round;stroke-linejoin:round;stroke-miterlimit:4;stroke-dasharray:none;stroke-opacity:1" />
  <path
     d="M 33.941034,58.203 L 33.941034,64.115"
     id="path294"
     style="fill:none;fill-rule:evenodd;stroke:#000000;stroke-width:1;stroke-linecap:round;stroke-linejoin:round;stroke-miterlimit:4;stroke-dasharray:none;stroke-opacity:1" />
  <path
     d="M 33.941034,67.109 L 33.941034,73.021"
     id="path296"
     style="fill:none;fill-rule:evenodd;stroke:#000000;stroke-width:1;stroke-linecap:round;stroke-linejoin:round;stroke-miterlimit:4;stroke-dasharray:none;stroke-opacity:1" />
  <path
     d="M 33.941034,76.014 L 33.941034,81.066"
     id="path298"
     style="fill:none;fill-rule:evenodd;stroke:#000000;stroke-width:1;stroke-linecap:round;stroke-linejoin:round;stroke-miterlimit:4;stroke-dasharray:none;stroke-opacity:1" />
  <path
     d="M 60.900934,81.066 L 60.717234,79.981 L 60.129534,78.896 L 59.211334,77.923 L 57.925734,77.062 L 56.383134,76.314 L 54.620034,75.752 L 52.710134,75.416 L 50.653234,75.229 L 48.633034,75.303 L 46.649634,75.565 L 44.776434,76.014 L 43.123534,76.65 L 41.691134,77.474 L 40.589234,78.409 L 39.854634,79.419 L 39.450634,80.542 L 39.450634,81.627 L 39.854634,82.712 L 40.589234,83.76 L 41.691134,84.695 L 43.123534,85.519 L 44.776434,86.155 L 46.649634,86.604 L 48.633034,86.866 L 50.653234,86.941 L 52.710134,86.753 L 54.620034,86.417 L 56.383134,85.855 L 57.925734,85.107 L 59.211334,84.246 L 60.129534,83.274 L 60.717234,82.188 L 60.900934,81.066 z "
     id="path300"
     style="fill:none;fill-rule:evenodd;stroke:#000000;stroke-width:1;stroke-linecap:round;stroke-linejoin:round;stroke-miterlimit:4;stroke-dasharray:none;stroke-opacity:1" />
  <path
     d="M 39.413834,81.066 L 33.941034,81.066"
     id="path304"
     style="fill:none;fill-rule:evenodd;stroke:#000000;stroke-width:1;stroke-linecap:round;stroke-linejoin:round;stroke-miterlimit:4;stroke-dasharray:none;stroke-opacity:1" />
  <path
     d="M 33.941034,41.215 L 38.458834,41.215"
     id="path306"
     style="fill:none;fill-rule:evenodd;stroke:#000000;stroke-width:1;stroke-linecap:round;stroke-linejoin:round;stroke-miterlimit:4;stroke-dasharray:none;stroke-opacity:1" />
  <path
     d="M 41.360534,41.215 L 45.878334,41.215"
     id="path308"
     style="fill:none;fill-rule:evenodd;stroke:#000000;stroke-width:1;stroke-linecap:round;stroke-linejoin:round;stroke-miterlimit:4;stroke-dasharray:none;stroke-opacity:1" />
  <path
     d="M 67.408834,48.143 L 67.931034,48.143 L 67.408834,48.143 z "
     id="path1172"
     style="fill:black;fill-rule:evenodd;stroke-width:1;stroke-linecap:round;stroke-linejoin:round;stroke-miterlimit:4;stroke-dasharray:none" />
  <path
     d="M 67.931034,48.143 L 68.453234,48.143 L 67.931034,48.143 z "
     id="path1174"
     style="fill:black;fill-rule:evenodd;stroke-width:1;stroke-linecap:round;stroke-linejoin:round;stroke-miterlimit:4;stroke-dasharray:none" />
  <path
     d="M 84.968134,62.198 L 85.490334,62.198 L 84.968134,62.198 z "
     id="path1810"
     style="fill:black;fill-rule:evenodd;stroke-width:1;stroke-linecap:round;stroke-linejoin:round;stroke-miterlimit:4;stroke-dasharray:none" />
  <path
     d="M 84.968134,62.198 L 85.490334,62.198 L 84.968134,62.198 z "
     id="path1812"
     style="fill:black;fill-rule:evenodd;stroke-width:1;stroke-linecap:round;stroke-linejoin:round;stroke-miterlimit:4;stroke-dasharray:none" />
  <path
     d="M 79.387034,62.198 L 79.912234,62.198 L 79.387034,62.198 z "
     id="path1826"
     style="fill:black;fill-rule:evenodd;stroke-width:1;stroke-linecap:round;stroke-linejoin:round;stroke-miterlimit:4;stroke-dasharray:none" />
  <path
     d="M 79.387034,62.198 L 79.912234,62.198 L 79.387034,62.198 z "
     id="path1828"
     style="fill:black;fill-rule:evenodd;stroke-width:1;stroke-linecap:round;stroke-linejoin:round;stroke-miterlimit:4;stroke-dasharray:none" />
  <path
     d="M 82.057434,50.467 L 82.579634,50.467 L 82.057434,50.467 z "
     id="path1940"
     style="fill:black;fill-rule:evenodd;stroke-width:1;stroke-linecap:round;stroke-linejoin:round;stroke-miterlimit:4;stroke-dasharray:none" />
  <path
     d="M 82.579634,50.467 L 83.101834,50.467 L 82.579634,50.467 z "
     id="path1942"
     style="fill:black;fill-rule:evenodd;stroke-width:1;stroke-linecap:round;stroke-linejoin:round;stroke-miterlimit:4;stroke-dasharray:none" />
  <path
     d="M 82.057434,56.736 L 82.579634,56.736 L 82.057434,56.736 z "
     id="path1960"
     style="fill:black;fill-rule:evenodd;stroke-width:1;stroke-linecap:round;stroke-linejoin:round;stroke-miterlimit:4;stroke-dasharray:none" />
  <path
     d="M 82.579634,56.736 L 83.101834,56.736 L 82.579634,56.736 z "
     id="path1962"
     style="fill:black;fill-rule:evenodd;stroke-width:1;stroke-linecap:round;stroke-linejoin:round;stroke-miterlimit:4;stroke-dasharray:none" />
  <path
     d="M 51.635634,73.438 L 52.718634,73.438 L 51.635634,73.438 z "
     id="path2330"
     style="fill:black;fill-rule:evenodd;stroke-width:1;stroke-linecap:round;stroke-linejoin:round;stroke-miterlimit:4;stroke-dasharray:none" />
  <path
     d="M 51.635634,74.925 L 52.718634,74.925 L 51.635634,74.925 z "
     id="path2336"
     style="fill:black;fill-rule:evenodd;stroke-width:1;stroke-linecap:round;stroke-linejoin:round;stroke-miterlimit:4;stroke-dasharray:none" />
</svg>
