<?xml version="1.0" encoding="UTF-8" standalone="no"?>
<!-- Created with Inkscape (http://www.inkscape.org/) -->
<svg
   xmlns:dc="http://purl.org/dc/elements/1.1/"
   xmlns:cc="http://web.resource.org/cc/"
   xmlns:rdf="http://www.w3.org/1999/02/22-rdf-syntax-ns#"
   xmlns:svg="http://www.w3.org/2000/svg"
   xmlns="http://www.w3.org/2000/svg"
   xmlns:sodipodi="http://sodipodi.sourceforge.net/DTD/sodipodi-0.dtd"
   xmlns:inkscape="http://www.inkscape.org/namespaces/inkscape"
   id="svg2"
   sodipodi:version="0.32"
   inkscape:version="0.45"
   width="100"
   height="100"
   version="1.0"
   sodipodi:docbase="D:\Datos\Proyectos\SIBOL\src\resources\svg"
   sodipodi:docname="d2.svg"
   inkscape:output_extension="org.inkscape.output.svg.inkscape"
   sodipodi:modified="true">
  <metadata
     id="metadata7">
    <rdf:RDF>
      <cc:Work
         rdf:about="">
        <dc:format>image/svg+xml</dc:format>
        <dc:type
           rdf:resource="http://purl.org/dc/dcmitype/StillImage" />
      </cc:Work>
    </rdf:RDF>
  </metadata>
  <defs
     id="defs5" />
  <sodipodi:namedview
     inkscape:window-height="788"
     inkscape:window-width="1019"
     inkscape:pageshadow="2"
     inkscape:pageopacity="0.0"
     borderopacity="1.0"
     bordercolor="#666666"
     pagecolor="#ffffff"
     id="base"
     showgrid="true"
     inkscape:grid-bbox="true"
     inkscape:grid-points="true"
     gridspacingx="2px"
     gridspacingy="2px"
     gridtolerance="0.5px"
     guidetolerance="0.5px"
     inkscape:guide-points="true"
     inkscape:zoom="6.19"
     inkscape:cx="50.038772"
     inkscape:cy="56.408143"
     inkscape:window-x="106"
     inkscape:window-y="97"
     inkscape:current-layer="svg2" />
  <path
     d="M 67.268228,48.14 L 67.800228,48.14 L 67.268228,48.14 z "
     id="path1172"
     style="fill:black;fill-rule:evenodd;stroke-width:1;stroke-linecap:round;stroke-linejoin:round;stroke-miterlimit:4;stroke-dasharray:none" />
  <path
     d="M 67.800228,48.14 L 68.332228,48.14 L 67.800228,48.14 z "
     id="path1174"
     style="fill:black;fill-rule:evenodd;stroke-width:1;stroke-linecap:round;stroke-linejoin:round;stroke-miterlimit:4;stroke-dasharray:none" />
  <path
     d="M 85.155628,62.195 L 85.687528,62.195 L 85.155628,62.195 z "
     id="path1810"
     style="fill:black;fill-rule:evenodd;stroke-width:1;stroke-linecap:round;stroke-linejoin:round;stroke-miterlimit:4;stroke-dasharray:none" />
  <path
     d="M 85.155628,62.195 L 85.687528,62.195 L 85.155628,62.195 z "
     id="path1812"
     style="fill:black;fill-rule:evenodd;stroke-width:1;stroke-linecap:round;stroke-linejoin:round;stroke-miterlimit:4;stroke-dasharray:none" />
  <path
     d="M 79.470228,62.195 L 80.005228,62.195 L 79.470228,62.195 z "
     id="path1826"
     style="fill:black;fill-rule:evenodd;stroke-width:1;stroke-linecap:round;stroke-linejoin:round;stroke-miterlimit:4;stroke-dasharray:none" />
  <path
     d="M 79.470228,62.195 L 80.005228,62.195 L 79.470228,62.195 z "
     id="path1828"
     style="fill:black;fill-rule:evenodd;stroke-width:1;stroke-linecap:round;stroke-linejoin:round;stroke-miterlimit:4;stroke-dasharray:none" />
  <path
     d="M 82.190528,50.464 L 82.722428,50.464 L 82.190528,50.464 z "
     id="path1940"
     style="fill:black;fill-rule:evenodd;stroke-width:1;stroke-linecap:round;stroke-linejoin:round;stroke-miterlimit:4;stroke-dasharray:none" />
  <path
     d="M 82.722428,50.464 L 83.254428,50.464 L 82.722428,50.464 z "
     id="path1942"
     style="fill:black;fill-rule:evenodd;stroke-width:1;stroke-linecap:round;stroke-linejoin:round;stroke-miterlimit:4;stroke-dasharray:none" />
  <path
     d="M 82.190528,56.733 L 82.722428,56.733 L 82.190528,56.733 z "
     id="path1960"
     style="fill:black;fill-rule:evenodd;stroke-width:1;stroke-linecap:round;stroke-linejoin:round;stroke-miterlimit:4;stroke-dasharray:none" />
  <path
     d="M 82.722428,56.733 L 83.254428,56.733 L 82.722428,56.733 z "
     id="path1962"
     style="fill:black;fill-rule:evenodd;stroke-width:1;stroke-linecap:round;stroke-linejoin:round;stroke-miterlimit:4;stroke-dasharray:none" />
  <path
     d="M 49.812728,50 L 41.560728,32.293"
     id="path2076"
     style="fill:none;fill-rule:evenodd;stroke:black;stroke-width:0.99999994;stroke-linecap:round;stroke-linejoin:round;stroke-miterlimit:4;stroke-dasharray:none"
     sodipodi:nodetypes="cc" />
  <path
     d="M 49.812728,32.179 L 49.812728,0.49900006"
     id="path2078"
     style="fill:none;fill-rule:evenodd;stroke:black;stroke-width:0.99999994;stroke-linecap:round;stroke-linejoin:round;stroke-miterlimit:4;stroke-dasharray:none"
     sodipodi:nodetypes="cc" />
  <path
     d="M 42.157028,90.618 L 41.486128,90.955 L 40.815328,91.669 L 40.479928,92.344 L 40.144428,93.357 L 40.144428,95.046 L 40.479928,96.06 L 40.815328,96.773 L 41.486128,97.448 L 42.157028,97.786 L 43.498728,97.786 L 44.169628,97.448 L 44.840528,96.773 L 45.175928,96.06 L 45.548628,95.046 L 45.548628,93.357 L 45.175928,92.344 L 44.840528,91.669 L 44.169628,90.955 L 43.498728,90.618 L 42.157028,90.618 z "
     id="path2080"
     style="fill:none;fill-rule:evenodd;stroke:red;stroke-width:0.99999994;stroke-linecap:round;stroke-linejoin:round;stroke-miterlimit:4;stroke-dasharray:none" />
  <path
     d="M 45.548628,26.326 L 45.548628,19.195"
     id="path2082"
     style="fill:none;fill-rule:evenodd;stroke:red;stroke-width:0.99999994;stroke-linecap:round;stroke-linejoin:round;stroke-miterlimit:4;stroke-dasharray:none" />
  <path
     d="M 49.812728,99.5 L 49.812728,50"
     id="path2084"
     style="fill:none;fill-rule:evenodd;stroke:black;stroke-width:0.99999994;stroke-linecap:round;stroke-linejoin:round;stroke-miterlimit:4;stroke-dasharray:none"
     sodipodi:nodetypes="cc" />
  <path
     d="M 33.808528,41.038 L 33.808528,46.143"
     id="path2086"
     style="fill:none;fill-rule:evenodd;stroke:#000000;stroke-width:0.99999994;stroke-linecap:round;stroke-linejoin:round;stroke-miterlimit:4;stroke-dasharray:none;stroke-opacity:1" />
  <path
     d="M 33.808528,49.108 L 33.808528,55.075"
     id="path2088"
     style="fill:none;fill-rule:evenodd;stroke:#000000;stroke-width:0.99999994;stroke-linecap:round;stroke-linejoin:round;stroke-miterlimit:4;stroke-dasharray:none;stroke-opacity:1" />
  <path
     d="M 33.808528,58.04 L 33.808528,64.008"
     id="path2090"
     style="fill:none;fill-rule:evenodd;stroke:#000000;stroke-width:0.99999994;stroke-linecap:round;stroke-linejoin:round;stroke-miterlimit:4;stroke-dasharray:none;stroke-opacity:1" />
  <path
     d="M 33.808528,66.973 L 33.808528,72.94"
     id="path2092"
     style="fill:none;fill-rule:evenodd;stroke:#000000;stroke-width:0.99999994;stroke-linecap:round;stroke-linejoin:round;stroke-miterlimit:4;stroke-dasharray:none;stroke-opacity:1" />
  <path
     d="M 33.808528,75.905 L 33.808528,81.01"
     id="path2094"
     style="fill:none;fill-rule:evenodd;stroke:#000000;stroke-width:0.99999994;stroke-linecap:round;stroke-linejoin:round;stroke-miterlimit:4;stroke-dasharray:none;stroke-opacity:1" />
  <path
     d="M 61.164728,81.01 L 61.015728,79.996 L 60.493928,79.02 L 59.711228,78.082 L 58.630428,77.256 L 57.288728,76.543 L 55.723328,75.943 L 54.008928,75.492 L 52.145428,75.23 L 50.244628,75.155 L 48.381128,75.23 L 46.517628,75.492 L 44.803228,75.943 L 43.237828,76.543 L 41.896128,77.256 L 40.815328,78.082 L 39.995328,79.02 L 39.510828,79.996 L 39.361828,81.01 L 39.510828,82.023 L 39.995328,83.036 L 40.815328,83.937 L 41.896128,84.8 L 43.237828,85.513 L 44.803228,86.114 L 46.517628,86.527 L 48.381128,86.789 L 50.244628,86.865 L 52.145428,86.789 L 54.008928,86.527 L 55.723328,86.114 L 57.288728,85.513 L 58.630428,84.8 L 59.711228,83.937 L 60.493928,83.036 L 61.015728,82.023 L 61.164728,81.01 z "
     id="path2096"
     style="fill:none;fill-rule:evenodd;stroke:#000000;stroke-width:0.99999994;stroke-linecap:round;stroke-linejoin:round;stroke-miterlimit:4;stroke-dasharray:none;stroke-opacity:1" />
  <path
     d="M 39.361828,81.01 L 33.808528,81.01"
     id="path2100"
     style="fill:none;fill-rule:evenodd;stroke:#000000;stroke-width:0.99999994;stroke-linecap:round;stroke-linejoin:round;stroke-miterlimit:4;stroke-dasharray:none;stroke-opacity:1" />
  <path
     d="M 22.702028,41.038 L 28.404428,41.038"
     id="path2102"
     style="fill:none;fill-rule:evenodd;stroke:#000000;stroke-width:0.99999994;stroke-linecap:round;stroke-linejoin:round;stroke-miterlimit:4;stroke-dasharray:none;stroke-opacity:1" />
  <path
     d="M 31.348728,41.038 L 37.274628,41.038"
     id="path2104"
     style="fill:none;fill-rule:evenodd;stroke:#000000;stroke-width:0.99999994;stroke-linecap:round;stroke-linejoin:round;stroke-miterlimit:4;stroke-dasharray:none;stroke-opacity:1" />
  <path
     d="M 40.219028,41.038 L 45.626428,41.09"
     id="path2106"
     style="fill:none;fill-rule:evenodd;stroke:#000000;stroke-width:0.99999994;stroke-linecap:round;stroke-linejoin:round;stroke-miterlimit:4;stroke-dasharray:none;stroke-opacity:1"
     sodipodi:nodetypes="cc" />
  <path
     d="M 22.702028,41.038 L 22.553028,39.349 L 22.068428,37.773 L 21.285828,36.272 L 20.242228,34.958 L 18.937828,33.907 L 17.447028,33.119 L 15.881628,32.631 L 14.204528,32.444 L 12.527328,32.631 L 10.962028,33.119 L 9.4712284,33.907 L 8.1667284,34.958 L 7.1232284,36.272 L 6.3405284,37.773 L 5.8560284,39.349 L 5.6696284,41.038 L 5.8560284,42.727 L 6.3405284,44.341 L 7.1232284,45.805 L 8.1667284,47.119 L 9.4712284,48.169 L 10.962028,48.958 L 12.527328,49.445 L 14.204528,49.633 L 15.881628,49.445 L 17.447028,48.958 L 18.937828,48.169 L 20.242228,47.119 L 21.285828,45.805 L 22.068428,44.341 L 22.553028,42.727 L 22.702028,41.038 z "
     id="path2108"
     style="fill:none;fill-rule:evenodd;stroke:black;stroke-width:0.99999994;stroke-linecap:round;stroke-linejoin:round;stroke-miterlimit:4;stroke-dasharray:none" />
  <path
     d="M 11.483828,44.604 L 11.483828,37.473 L 14.204528,44.604 L 16.887928,37.473 L 16.887928,44.604"
     id="path2110"
     style="fill:none;fill-rule:evenodd;stroke:black;stroke-width:0.99999994;stroke-linecap:round;stroke-linejoin:round;stroke-miterlimit:4;stroke-dasharray:none" />
  <path
     d="M 51.200528,73.435 L 52.303728,73.435 L 51.200528,73.435 z "
     id="path2330"
     style="fill:black;fill-rule:evenodd;stroke-width:1;stroke-linecap:round;stroke-linejoin:round;stroke-miterlimit:4;stroke-dasharray:none" />
  <path
     d="M 51.200528,74.922 L 52.303728,74.922 L 51.200528,74.922 z "
     id="path2336"
     style="fill:black;fill-rule:evenodd;stroke-width:1;stroke-linecap:round;stroke-linejoin:round;stroke-miterlimit:4;stroke-dasharray:none" />
</svg>
