<?xml version="1.0" encoding="UTF-8" standalone="no"?>
<!-- Created with Inkscape (http://www.inkscape.org/) -->
<svg
   xmlns:dc="http://purl.org/dc/elements/1.1/"
   xmlns:cc="http://web.resource.org/cc/"
   xmlns:rdf="http://www.w3.org/1999/02/22-rdf-syntax-ns#"
   xmlns:svg="http://www.w3.org/2000/svg"
   xmlns="http://www.w3.org/2000/svg"
   xmlns:sodipodi="http://sodipodi.sourceforge.net/DTD/sodipodi-0.dtd"
   xmlns:inkscape="http://www.inkscape.org/namespaces/inkscape"
   id="svg2"
   sodipodi:version="0.32"
   inkscape:version="0.44"
   width="100"
   height="100"
   version="1.0"
   sodipodi:docbase="C:\Documents and Settings\SANJOSE.DOMPROD2\Escritorio"
   sodipodi:docname="ft.svg">
  <metadata
     id="metadata7">
    <rdf:RDF>
      <cc:Work
         rdf:about="">
        <dc:format>image/svg+xml</dc:format>
        <dc:type
           rdf:resource="http://purl.org/dc/dcmitype/StillImage" />
      </cc:Work>
    </rdf:RDF>
  </metadata>
  <defs
     id="defs5" />
  <sodipodi:namedview
     inkscape:window-height="968"
     inkscape:window-width="1280"
     inkscape:pageshadow="2"
     inkscape:pageopacity="0.0"
     borderopacity="1.0"
     bordercolor="#666666"
     pagecolor="#ffffff"
     id="base"
     showgrid="true"
     inkscape:grid-bbox="true"
     inkscape:grid-points="true"
     gridspacingx="2px"
     gridspacingy="2px"
     gridtolerance="0.5px"
     guidetolerance="0.5px"
     inkscape:guide-points="true"
     inkscape:zoom="6.19"
     inkscape:cx="62.288017"
     inkscape:cy="51.180829"
     inkscape:window-x="-4"
     inkscape:window-y="26"
     inkscape:current-layer="svg2" />
  <path
     d="M 66.960117,48.139644 L 67.48721,48.139644 L 66.960117,48.139644 z "
     id="path1172"
     style="fill:black;fill-rule:evenodd;stroke-width:1;stroke-linecap:round;stroke-linejoin:round;stroke-miterlimit:4;stroke-dasharray:none" />
  <path
     d="M 67.48721,48.139644 L 68.014302,48.139644 L 67.48721,48.139644 z "
     id="path1174"
     style="fill:black;fill-rule:evenodd;stroke-width:1;stroke-linecap:round;stroke-linejoin:round;stroke-miterlimit:4;stroke-dasharray:none" />
  <path
     d="M 84.683574,62.194454 L 85.210666,62.194454 L 84.683574,62.194454 z "
     id="path1810"
     style="fill:black;fill-rule:evenodd;stroke-width:1;stroke-linecap:round;stroke-linejoin:round;stroke-miterlimit:4;stroke-dasharray:none" />
  <path
     d="M 84.683574,62.194454 L 85.210666,62.194454 L 84.683574,62.194454 z "
     id="path1812"
     style="fill:black;fill-rule:evenodd;stroke-width:1;stroke-linecap:round;stroke-linejoin:round;stroke-miterlimit:4;stroke-dasharray:none" />
  <path
     d="M 79.050251,62.194454 L 79.580344,62.194454 L 79.050251,62.194454 z "
     id="path1826"
     style="fill:black;fill-rule:evenodd;stroke-width:1;stroke-linecap:round;stroke-linejoin:round;stroke-miterlimit:4;stroke-dasharray:none" />
  <path
     d="M 79.050251,62.194454 L 79.580344,62.194454 L 79.050251,62.194454 z "
     id="path1828"
     style="fill:black;fill-rule:evenodd;stroke-width:1;stroke-linecap:round;stroke-linejoin:round;stroke-miterlimit:4;stroke-dasharray:none" />
  <path
     d="M 81.745614,50.463613 L 82.272707,50.463613 L 81.745614,50.463613 z "
     id="path1940"
     style="fill:black;fill-rule:evenodd;stroke-width:1;stroke-linecap:round;stroke-linejoin:round;stroke-miterlimit:4;stroke-dasharray:none" />
  <path
     d="M 82.272707,50.463613 L 82.7998,50.463613 L 82.272707,50.463613 z "
     id="path1942"
     style="fill:black;fill-rule:evenodd;stroke-width:1;stroke-linecap:round;stroke-linejoin:round;stroke-miterlimit:4;stroke-dasharray:none" />
  <path
     d="M 81.745614,56.732528 L 82.272707,56.732528 L 81.745614,56.732528 z "
     id="path1960"
     style="fill:black;fill-rule:evenodd;stroke-width:1;stroke-linecap:round;stroke-linejoin:round;stroke-miterlimit:4;stroke-dasharray:none" />
  <path
     d="M 82.272707,56.732528 L 82.7998,56.732528 L 82.272707,56.732528 z "
     id="path1962"
     style="fill:black;fill-rule:evenodd;stroke-width:1;stroke-linecap:round;stroke-linejoin:round;stroke-miterlimit:4;stroke-dasharray:none" />
  <path
     d="M 51.039535,73.434303 L 52.13262,73.434303 L 51.039535,73.434303 z "
     id="path2330"
     style="fill:black;fill-rule:evenodd;stroke-width:1;stroke-linecap:round;stroke-linejoin:round;stroke-miterlimit:4;stroke-dasharray:none" />
  <path
     d="M 51.039535,74.921283 L 52.13262,74.921283 L 51.039535,74.921283 z "
     id="path2336"
     style="fill:black;fill-rule:evenodd;stroke-width:1;stroke-linecap:round;stroke-linejoin:round;stroke-miterlimit:4;stroke-dasharray:none" />
  <path
     d="M 42.851241,37.130811 L 49.664445,57.920541"
     id="path2532"
     style="fill:none;fill-rule:evenodd;stroke:black;stroke-width:1.00000012;stroke-linecap:round;stroke-linejoin:round;stroke-miterlimit:4;stroke-dasharray:none"
     sodipodi:nodetypes="cc" />
  <path
     d="M 49.664445,37.130811 L 49.664445,17.590065"
     id="path2534"
     style="fill:none;fill-rule:evenodd;stroke:black;stroke-width:1.00000012;stroke-linecap:round;stroke-linejoin:round;stroke-miterlimit:4;stroke-dasharray:none"
     sodipodi:nodetypes="cc" />
  <path
     d="M 49.664445,9.4111711 L 49.664445,0.50128692"
     id="path2536"
     style="fill:none;fill-rule:evenodd;stroke:black;stroke-width:1.00000012;stroke-linecap:round;stroke-linejoin:round;stroke-miterlimit:4;stroke-dasharray:none"
     sodipodi:nodetypes="cc" />
  <path
     d="M 49.664445,82.670219 L 49.664445,57.920541"
     id="path2538"
     style="fill:none;fill-rule:evenodd;stroke:black;stroke-width:1.00000012;stroke-linecap:round;stroke-linejoin:round;stroke-miterlimit:4;stroke-dasharray:none"
     sodipodi:nodetypes="cc" />
  <path
     d="M 46.332692,47.805672 L 39.896582,47.805672"
     id="path2540"
     style="fill:none;fill-rule:evenodd;stroke:black;stroke-width:1.00000012;stroke-linecap:round;stroke-linejoin:round;stroke-miterlimit:4;stroke-dasharray:none"
     sodipodi:nodetypes="cc" />
  <path
     d="M 37.067822,47.805672 L 30.515013,47.805672"
     id="path2542"
     style="fill:none;fill-rule:evenodd;stroke:black;stroke-width:1.00000012;stroke-linecap:round;stroke-linejoin:round;stroke-miterlimit:4;stroke-dasharray:none" />
  <path
     d="M 30.515013,47.805672 L 30.371815,46.45669 L 29.870522,45.174706 L 29.118533,44.028721 L 28.080147,43.050734 L 26.862665,42.342743 L 25.501984,41.870749 L 24.069704,41.735751 L 22.637424,41.870749 L 21.276743,42.342743 L 20.02346,43.050734 L 19.020874,44.028721 L 18.233085,45.174706 L 17.767592,46.45669 L 17.624394,47.805672 L 17.767592,49.187654 L 18.233085,50.468637 L 19.020874,51.615622 L 20.02346,52.55961 L 21.276743,53.301601 L 22.637424,53.739595 L 24.069704,53.908593 L 25.501984,53.739595 L 26.862665,53.301601 L 28.080147,52.55961 L 29.118533,51.615622 L 29.870522,50.468637 L 30.371815,49.187654 L 30.515013,47.805672 z "
     id="path2544"
     style="fill:none;fill-rule:evenodd;stroke:black;stroke-width:1.00000012;stroke-linecap:round;stroke-linejoin:round;stroke-miterlimit:4;stroke-dasharray:none" />
  <path
     d="M 27.041762,47.805672 L 26.898464,46.962683 L 26.46877,46.186693 L 25.824279,45.545701 L 24.964891,45.141707 L 24.069704,45.006708 L 23.138717,45.141707 L 22.315128,45.545701 L 21.670637,46.186693 L 21.240943,46.962683 L 21.097745,47.805672 L 21.240943,48.681661 L 21.670637,49.457651 L 22.315128,50.098642 L 23.138717,50.468637 L 24.069704,50.603636 L 24.964891,50.468637 L 25.824279,50.098642 L 26.46877,49.457651 L 26.898464,48.681661 L 27.041762,47.805672 z "
     id="path2546"
     style="fill:none;fill-rule:evenodd;stroke:black;stroke-width:1.00000012;stroke-linecap:round;stroke-linejoin:round;stroke-miterlimit:4;stroke-dasharray:none" />
  <path
     d="M 24.069704,45.006708 L 24.069704,41.735751"
     id="path2548"
     style="fill:none;fill-rule:evenodd;stroke:black;stroke-width:1.00000012;stroke-linecap:round;stroke-linejoin:round;stroke-miterlimit:4;stroke-dasharray:none" />
  <path
     d="M 21.957033,45.849697 L 19.486368,43.522728"
     id="path2550"
     style="fill:none;fill-rule:evenodd;stroke:black;stroke-width:1.00000012;stroke-linecap:round;stroke-linejoin:round;stroke-miterlimit:4;stroke-dasharray:none" />
  <path
     d="M 21.097745,47.805672 L 17.624394,47.805672"
     id="path2552"
     style="fill:none;fill-rule:evenodd;stroke:black;stroke-width:1.00000012;stroke-linecap:round;stroke-linejoin:round;stroke-miterlimit:4;stroke-dasharray:none" />
  <path
     d="M 21.957033,49.794646 L 19.486368,52.121616"
     id="path2554"
     style="fill:none;fill-rule:evenodd;stroke:black;stroke-width:1.00000012;stroke-linecap:round;stroke-linejoin:round;stroke-miterlimit:4;stroke-dasharray:none" />
  <path
     d="M 24.069704,50.603636 L 24.069704,53.908593"
     id="path2556"
     style="fill:none;fill-rule:evenodd;stroke:black;stroke-width:1.00000012;stroke-linecap:round;stroke-linejoin:round;stroke-miterlimit:4;stroke-dasharray:none" />
  <path
     d="M 26.182374,49.794646 L 28.61724,52.121616"
     id="path2558"
     style="fill:none;fill-rule:evenodd;stroke:black;stroke-width:1.00000012;stroke-linecap:round;stroke-linejoin:round;stroke-miterlimit:4;stroke-dasharray:none" />
  <path
     d="M 27.041762,47.805672 L 30.515013,47.805672"
     id="path2560"
     style="fill:none;fill-rule:evenodd;stroke:black;stroke-width:1.00000012;stroke-linecap:round;stroke-linejoin:round;stroke-miterlimit:4;stroke-dasharray:none" />
  <path
     d="M 26.182374,45.849697 L 28.61724,43.522728"
     id="path2562"
     style="fill:none;fill-rule:evenodd;stroke:black;stroke-width:1.00000012;stroke-linecap:round;stroke-linejoin:round;stroke-miterlimit:4;stroke-dasharray:none" />
  <path
     d="M 54.056384,86.872164 L 53.841487,85.62418 L 53.196996,84.478195 L 52.230209,83.567207 L 51.012726,82.960215 L 49.687845,82.758218 L 48.327164,82.960215 L 47.109681,83.567207 L 46.142895,84.478195 L 45.534203,85.62418 L 45.319306,86.872164 L 45.534203,88.153147 L 46.142895,89.300133 L 47.109681,90.210121 L 48.327164,90.784113 L 49.687845,90.986111 L 51.012726,90.784113 L 52.230209,90.210121 L 53.196996,89.300133 L 53.841487,88.153147 L 54.056384,86.872164 z "
     id="path2564"
     style="fill:none;fill-rule:evenodd;stroke:black;stroke-width:1.00000012;stroke-linecap:round;stroke-linejoin:round;stroke-miterlimit:4;stroke-dasharray:none" />
  <path
     d="M 54.006385,13.497118 L 53.791488,12.215135 L 53.146997,11.06915 L 52.18021,10.158161 L 50.962727,9.5851688 L 49.637846,9.3831714 L 48.277165,9.5851688 L 47.059682,10.158161 L 46.092895,11.06915 L 45.484204,12.215135 L 45.269307,13.497118 L 45.484204,14.744102 L 46.092895,15.891087 L 47.059682,16.801075 L 48.277165,17.408067 L 49.637846,17.611065 L 50.962727,17.408067 L 52.18021,16.801075 L 53.146997,15.891087 L 53.791488,14.744102 L 54.006385,13.497118 z "
     id="path2566"
     style="fill:none;fill-rule:evenodd;stroke:black;stroke-width:1.00000012;stroke-linecap:round;stroke-linejoin:round;stroke-miterlimit:4;stroke-dasharray:none" />
  <path
     d="M 49.664445,90.986111 L 49.664445,99.5"
     id="path2568"
     style="fill:none;fill-rule:evenodd;stroke:black;stroke-width:1.00000012;stroke-linecap:round;stroke-linejoin:round;stroke-miterlimit:4;stroke-dasharray:none"
     sodipodi:nodetypes="cc" />
</svg>
