<?xml version="1.0" encoding="UTF-8" standalone="no"?>
<!-- Created with Inkscape (http://www.inkscape.org/) -->
<svg
   xmlns:dc="http://purl.org/dc/elements/1.1/"
   xmlns:cc="http://web.resource.org/cc/"
   xmlns:rdf="http://www.w3.org/1999/02/22-rdf-syntax-ns#"
   xmlns:svg="http://www.w3.org/2000/svg"
   xmlns="http://www.w3.org/2000/svg"
   xmlns:sodipodi="http://sodipodi.sourceforge.net/DTD/sodipodi-0.dtd"
   xmlns:inkscape="http://www.inkscape.org/namespaces/inkscape"
   id="svg2"
   sodipodi:version="0.32"
   inkscape:version="0.44.1"
   width="100"
   height="100"
   version="1.0"
   sodipodi:docbase="C:\Documents and Settings\SANJOSE.DOMPROD2\Escritorio"
   sodipodi:docname="rj.svg">
  <metadata
     id="metadata7">
    <rdf:RDF>
      <cc:Work
         rdf:about="">
        <dc:format>image/svg+xml</dc:format>
        <dc:type
           rdf:resource="http://purl.org/dc/dcmitype/StillImage" />
      </cc:Work>
    </rdf:RDF>
  </metadata>
  <defs
     id="defs5" />
  <sodipodi:namedview
     inkscape:window-height="968"
     inkscape:window-width="1280"
     inkscape:pageshadow="2"
     inkscape:pageopacity="0.0"
     borderopacity="1.0"
     bordercolor="#666666"
     pagecolor="#ffffff"
     id="base"
     showgrid="true"
     inkscape:grid-bbox="true"
     inkscape:grid-points="true"
     gridspacingx="2px"
     gridspacingy="2px"
     gridtolerance="0.5px"
     guidetolerance="0.5px"
     inkscape:guide-points="true"
     inkscape:zoom="6.19"
     inkscape:cx="51.887217"
     inkscape:cy="53.313935"
     inkscape:window-x="-4"
     inkscape:window-y="26"
     inkscape:current-layer="svg2" />
  <path
     d="M 67.3655,48.137 L 67.8948,48.137 L 67.3655,48.137 z "
     id="path1172"
     style="fill:black;fill-rule:evenodd;stroke-width:1;stroke-linecap:round;stroke-linejoin:round;stroke-miterlimit:4;stroke-dasharray:none" />
  <path
     d="M 67.8948,48.137 L 68.424,48.137 L 67.8948,48.137 z "
     id="path1174"
     style="fill:black;fill-rule:evenodd;stroke-width:1;stroke-linecap:round;stroke-linejoin:round;stroke-miterlimit:4;stroke-dasharray:none" />
  <path
     d="M 85.1616,62.192 L 85.6909,62.192 L 85.1616,62.192 z "
     id="path1810"
     style="fill:black;fill-rule:evenodd;stroke-width:1;stroke-linecap:round;stroke-linejoin:round;stroke-miterlimit:4;stroke-dasharray:none" />
  <path
     d="M 85.1616,62.192 L 85.6909,62.192 L 85.1616,62.192 z "
     id="path1812"
     style="fill:black;fill-rule:evenodd;stroke-width:1;stroke-linecap:round;stroke-linejoin:round;stroke-miterlimit:4;stroke-dasharray:none" />
  <path
     d="M 79.5053,62.192 L 80.0375,62.192 L 79.5053,62.192 z "
     id="path1826"
     style="fill:black;fill-rule:evenodd;stroke-width:1;stroke-linecap:round;stroke-linejoin:round;stroke-miterlimit:4;stroke-dasharray:none" />
  <path
     d="M 79.5053,62.192 L 80.0375,62.192 L 79.5053,62.192 z "
     id="path1828"
     style="fill:black;fill-rule:evenodd;stroke-width:1;stroke-linecap:round;stroke-linejoin:round;stroke-miterlimit:4;stroke-dasharray:none" />
  <path
     d="M 82.2117,50.461 L 82.7409,50.461 L 82.2117,50.461 z "
     id="path1940"
     style="fill:black;fill-rule:evenodd;stroke-width:1;stroke-linecap:round;stroke-linejoin:round;stroke-miterlimit:4;stroke-dasharray:none" />
  <path
     d="M 82.7409,50.461 L 83.2702,50.461 L 82.7409,50.461 z "
     id="path1942"
     style="fill:black;fill-rule:evenodd;stroke-width:1;stroke-linecap:round;stroke-linejoin:round;stroke-miterlimit:4;stroke-dasharray:none" />
  <path
     d="M 82.2117,56.73 L 82.7409,56.73 L 82.2117,56.73 z "
     id="path1960"
     style="fill:black;fill-rule:evenodd;stroke-width:1;stroke-linecap:round;stroke-linejoin:round;stroke-miterlimit:4;stroke-dasharray:none" />
  <path
     d="M 82.7409,56.73 L 83.2702,56.73 L 82.7409,56.73 z "
     id="path1962"
     style="fill:black;fill-rule:evenodd;stroke-width:1;stroke-linecap:round;stroke-linejoin:round;stroke-miterlimit:4;stroke-dasharray:none" />
  <path
     d="M 51.3797,73.432 L 52.4773,73.432 L 51.3797,73.432 z "
     id="path2330"
     style="fill:black;fill-rule:evenodd;stroke-width:1;stroke-linecap:round;stroke-linejoin:round;stroke-miterlimit:4;stroke-dasharray:none" />
  <path
     d="M 51.3797,74.919 L 52.4773,74.919 L 51.3797,74.919 z "
     id="path2336"
     style="fill:black;fill-rule:evenodd;stroke-width:1;stroke-linecap:round;stroke-linejoin:round;stroke-miterlimit:4;stroke-dasharray:none" />
  <path
     d="M 71.4731,61.875 L 28.4982,61.88"
     id="path2442"
     style="fill:none;fill-rule:evenodd;stroke:black;stroke-width:0.99999994;stroke-linecap:round;stroke-linejoin:round;stroke-miterlimit:4;stroke-dasharray:none"
     sodipodi:nodetypes="cc" />
  <path
     d="M 28.4982,40.1 L 71.5,40.1"
     id="path2444"
     style="fill:none;fill-rule:evenodd;stroke:black;stroke-width:0.99999994;stroke-linecap:round;stroke-linejoin:round;stroke-miterlimit:4;stroke-dasharray:none"
     sodipodi:nodetypes="cc" />
  <path
     d="M 49.9991,61.88 L 49.9991,99.5"
     id="path2446"
     style="fill:none;fill-rule:evenodd;stroke:black;stroke-width:0.99999994;stroke-linecap:round;stroke-linejoin:round;stroke-miterlimit:4;stroke-dasharray:none"
     sodipodi:nodetypes="cc" />
  <path
     d="M 28.4982,40.1 L 28.4982,61.88"
     id="path2448"
     style="fill:none;fill-rule:evenodd;stroke:black;stroke-width:0.99999994;stroke-linecap:round;stroke-linejoin:round;stroke-miterlimit:4;stroke-dasharray:none"
     sodipodi:nodetypes="cc" />
  <path
     d="M 71.5,40.1 L 71.5,61.88"
     id="path2450"
     style="fill:none;fill-rule:evenodd;stroke:black;stroke-width:0.99999994;stroke-linecap:round;stroke-linejoin:round;stroke-miterlimit:4;stroke-dasharray:none"
     sodipodi:nodetypes="cc" />
  <path
     d="M 34.2648,33.069 L 37.4268,24.553 L 40.5456,33.069"
     id="path2452"
     style="fill:none;fill-rule:evenodd;stroke:red;stroke-width:0.99999994;stroke-linecap:round;stroke-linejoin:round;stroke-miterlimit:4;stroke-dasharray:none" />
  <path
     d="M 35.4776,30.216 L 39.3761,30.216"
     id="path2454"
     style="fill:none;fill-rule:evenodd;stroke:red;stroke-width:0.99999994;stroke-linecap:round;stroke-linejoin:round;stroke-miterlimit:4;stroke-dasharray:none" />
  <path
     d="M 42.928,26.202 L 43.7076,25.757 L 44.8772,24.553 L 44.8772,33.069"
     id="path2456"
     style="fill:none;fill-rule:evenodd;stroke:red;stroke-width:0.99999994;stroke-linecap:round;stroke-linejoin:round;stroke-miterlimit:4;stroke-dasharray:none" />
  <path
     d="M 30.7562,77.481 L 33.875,68.964 L 37.037,77.481"
     id="path2458"
     style="fill:none;fill-rule:evenodd;stroke:red;stroke-width:0.99999994;stroke-linecap:round;stroke-linejoin:round;stroke-miterlimit:4;stroke-dasharray:none" />
  <path
     d="M 31.9257,74.627 L 35.8675,74.627"
     id="path2460"
     style="fill:none;fill-rule:evenodd;stroke:red;stroke-width:0.99999994;stroke-linecap:round;stroke-linejoin:round;stroke-miterlimit:4;stroke-dasharray:none" />
  <path
     d="M 39.7659,70.971 L 39.7659,70.57 L 40.1557,69.767 L 40.5456,69.366 L 41.3253,68.964 L 42.928,68.964 L 43.7076,69.366 L 44.0975,69.767 L 44.4873,70.57 L 44.4873,71.372 L 44.0975,72.219 L 43.3178,73.423 L 39.3761,77.481 L 44.8772,77.481"
     id="path2462"
     style="fill:none;fill-rule:evenodd;stroke:red;stroke-width:0.99999994;stroke-linecap:round;stroke-linejoin:round;stroke-miterlimit:4;stroke-dasharray:none" />
  <path
     d="M 59.0494,50.714 L 58.8761,48.931 L 58.3564,47.236 L 57.5334,45.631 L 56.4071,44.249 L 55.0644,43.089 L 53.5483,42.242 L 51.859,41.752 L 50.1264,41.573 L 48.3937,41.752 L 46.7044,42.242 L 45.1884,43.089 L 43.8456,44.249 L 42.7194,45.631 L 41.8964,47.236 L 41.3766,48.931 L 41.2033,50.714 L 41.3766,52.542 L 41.8964,54.237 L 42.7194,55.842 L 43.8456,57.224 L 45.1884,58.384 L 46.7044,59.231 L 48.3937,59.721 L 50.1264,59.9 L 51.859,59.721 L 53.5483,59.231 L 55.0644,58.384 L 56.4071,57.224 L 57.5334,55.842 L 58.3564,54.237 L 58.8761,52.542 L 59.0494,50.714 z "
     id="path2464"
     style="fill:none;fill-rule:evenodd;stroke:black;stroke-width:0.99999994;stroke-linecap:round;stroke-linejoin:round;stroke-miterlimit:4;stroke-dasharray:none" />
  <path
     d="M 57.8799,50.714 L 57.7066,49.153 L 57.2735,47.682 L 56.5804,46.3 L 55.5841,45.096 L 54.4146,44.115 L 53.0718,43.357 L 51.6424,42.911 L 50.1264,42.733 L 48.6103,42.911 L 47.1376,43.357 L 45.8381,44.115 L 44.6252,45.096 L 43.6723,46.3 L 42.9792,47.682 L 42.5028,49.153 L 42.3728,50.714 L 42.5028,52.275 L 42.9792,53.791 L 43.6723,55.173 L 44.6252,56.377 L 45.8381,57.358 L 47.1376,58.116 L 48.6103,58.562 L 50.1264,58.696 L 51.6424,58.562 L 53.0718,58.116 L 54.4146,57.358 L 55.5841,56.377 L 56.5804,55.173 L 57.2735,53.791 L 57.7066,52.275 L 57.8799,50.714 z "
     id="path2466"
     style="fill:none;fill-rule:evenodd;stroke:black;stroke-width:0.99999994;stroke-linecap:round;stroke-linejoin:round;stroke-miterlimit:4;stroke-dasharray:none" />
  <path
     d="M 50.8194,49.599 L 50.8194,44.159"
     id="path2468"
     style="fill:none;fill-rule:evenodd;stroke:black;stroke-width:0.99999994;stroke-linecap:round;stroke-linejoin:round;stroke-miterlimit:4;stroke-dasharray:none" />
  <path
     d="M 50.8194,44.159 L 50.6028,43.669 L 50.1264,43.446 L 49.6499,43.669 L 49.4333,44.159"
     id="path2470"
     style="fill:none;fill-rule:evenodd;stroke:black;stroke-width:0.99999994;stroke-linecap:round;stroke-linejoin:round;stroke-miterlimit:4;stroke-dasharray:none" />
  <path
     d="M 49.4333,49.599 L 49.4333,44.159"
     id="path2472"
     style="fill:none;fill-rule:evenodd;stroke:black;stroke-width:0.99999994;stroke-linecap:round;stroke-linejoin:round;stroke-miterlimit:4;stroke-dasharray:none" />
  <path
     d="M 51.4258,50.714 L 51.2526,50.045 L 50.7761,49.555 L 50.1264,49.376 L 49.4766,49.555 L 49.0001,50.045 L 48.8269,50.714 L 49.0001,51.428 L 49.4766,51.918 L 50.1264,52.096 L 50.7761,51.918 L 51.2526,51.428 L 51.4258,50.714 z "
     id="path2474"
     style="fill:none;fill-rule:evenodd;stroke:black;stroke-width:0.99999994;stroke-linecap:round;stroke-linejoin:round;stroke-miterlimit:4;stroke-dasharray:none" />
  <path
     d="M 49.0001,51.428 L 45.145,51.428"
     id="path2476"
     style="fill:none;fill-rule:evenodd;stroke:black;stroke-width:0.99999994;stroke-linecap:round;stroke-linejoin:round;stroke-miterlimit:4;stroke-dasharray:none" />
  <path
     d="M 49.0001,50.045 L 45.145,50.045"
     id="path2478"
     style="fill:none;fill-rule:evenodd;stroke:black;stroke-width:0.99999994;stroke-linecap:round;stroke-linejoin:round;stroke-miterlimit:4;stroke-dasharray:none" />
  <path
     d="M 45.145,50.045 L 44.6686,50.224 L 44.452,50.714 L 44.6686,51.249 L 45.145,51.428"
     id="path2480"
     style="fill:none;fill-rule:evenodd;stroke:black;stroke-width:0.99999994;stroke-linecap:round;stroke-linejoin:round;stroke-miterlimit:4;stroke-dasharray:none" />
  <path
     d="M 50.0373,40.115 L 49.9991,0.49999997"
     id="path2482"
     style="fill:none;fill-rule:evenodd;stroke:black;stroke-width:0.99999994;stroke-linecap:round;stroke-linejoin:round;stroke-miterlimit:4;stroke-dasharray:none"
     sodipodi:nodetypes="cc" />
</svg>
