<?xml version="1.0" encoding="UTF-8" standalone="no"?>
<!-- Created with Inkscape (http://www.inkscape.org/) -->
<svg
   xmlns:dc="http://purl.org/dc/elements/1.1/"
   xmlns:cc="http://web.resource.org/cc/"
   xmlns:rdf="http://www.w3.org/1999/02/22-rdf-syntax-ns#"
   xmlns:svg="http://www.w3.org/2000/svg"
   xmlns="http://www.w3.org/2000/svg"
   xmlns:sodipodi="http://sodipodi.sourceforge.net/DTD/sodipodi-0.dtd"
   xmlns:inkscape="http://www.inkscape.org/namespaces/inkscape"
   id="svg2"
   sodipodi:version="0.32"
   inkscape:version="0.44.1"
   width="100"
   height="100"
   version="1.0"
   sodipodi:docbase="C:\Datos\Proyectos\SGIE\src\resources\svg"
   sodipodi:docname="schuco.svg">
  <metadata
     id="metadata7">
    <rdf:RDF>
      <cc:Work
         rdf:about="">
        <dc:format>image/svg+xml</dc:format>
        <dc:type
           rdf:resource="http://purl.org/dc/dcmitype/StillImage" />
      </cc:Work>
    </rdf:RDF>
  </metadata>
  <defs
     id="defs5" />
  <sodipodi:namedview
     inkscape:window-height="968"
     inkscape:window-width="1280"
     inkscape:pageshadow="2"
     inkscape:pageopacity="0.0"
     borderopacity="1.0"
     bordercolor="#666666"
     pagecolor="#ffffff"
     id="base"
     showgrid="true"
     inkscape:grid-bbox="true"
     inkscape:grid-points="true"
     gridspacingx="2px"
     gridspacingy="2px"
     gridtolerance="0.5px"
     guidetolerance="0.5px"
     inkscape:guide-points="true"
     inkscape:zoom="6.19"
     inkscape:cx="60.061192"
     inkscape:cy="42.725423"
     inkscape:window-x="-4"
     inkscape:window-y="26"
     inkscape:current-layer="svg2" />
  <path
     d="M 76.7301,73.1709 L 77.5345,73.1709 L 76.7301,73.1709 z "
     id="path1172"
     style="fill:black;fill-rule:evenodd;stroke-width:1;stroke-linecap:round;stroke-linejoin:round;stroke-miterlimit:4;stroke-dasharray:none" />
  <path
     d="M 77.5345,73.1709 L 78.3388,73.1709 L 77.5345,73.1709 z "
     id="path1174"
     style="fill:black;fill-rule:evenodd;stroke-width:1;stroke-linecap:round;stroke-linejoin:round;stroke-miterlimit:4;stroke-dasharray:none" />
  <path
     d="M 103.7759,94.6112 L 104.5802,94.6112 L 103.7759,94.6112 z "
     id="path1810"
     style="fill:black;fill-rule:evenodd;stroke-width:1;stroke-linecap:round;stroke-linejoin:round;stroke-miterlimit:4;stroke-dasharray:none" />
  <path
     d="M 103.7759,94.6112 L 104.5802,94.6112 L 103.7759,94.6112 z "
     id="path1812"
     style="fill:black;fill-rule:evenodd;stroke-width:1;stroke-linecap:round;stroke-linejoin:round;stroke-miterlimit:4;stroke-dasharray:none" />
  <path
     d="M 95.1795,94.6112 L 95.9885,94.6112 L 95.1795,94.6112 z "
     id="path1826"
     style="fill:black;fill-rule:evenodd;stroke-width:1;stroke-linecap:round;stroke-linejoin:round;stroke-miterlimit:4;stroke-dasharray:none" />
  <path
     d="M 95.1795,94.6112 L 95.9885,94.6112 L 95.1795,94.6112 z "
     id="path1828"
     style="fill:black;fill-rule:evenodd;stroke-width:1;stroke-linecap:round;stroke-linejoin:round;stroke-miterlimit:4;stroke-dasharray:none" />
  <path
     d="M 99.292601,76.7164 L 100.097,76.7164 L 99.292601,76.7164 z "
     id="path1940"
     style="fill:black;fill-rule:evenodd;stroke-width:1;stroke-linecap:round;stroke-linejoin:round;stroke-miterlimit:4;stroke-dasharray:none" />
  <path
     d="M 100.097,76.7164 L 100.9013,76.7164 L 100.097,76.7164 z "
     id="path1942"
     style="fill:black;fill-rule:evenodd;stroke-width:1;stroke-linecap:round;stroke-linejoin:round;stroke-miterlimit:4;stroke-dasharray:none" />
  <path
     d="M 99.292601,86.2795 L 100.097,86.2795 L 99.292601,86.2795 z "
     id="path1960"
     style="fill:black;fill-rule:evenodd;stroke-width:1;stroke-linecap:round;stroke-linejoin:round;stroke-miterlimit:4;stroke-dasharray:none" />
  <path
     d="M 100.097,86.2795 L 100.9013,86.2795 L 100.097,86.2795 z "
     id="path1962"
     style="fill:black;fill-rule:evenodd;stroke-width:1;stroke-linecap:round;stroke-linejoin:round;stroke-miterlimit:4;stroke-dasharray:none" />
  <path
     d="M 36.907895,33.010277 L 62.84868,33.010277 L 62.84868,59.500003 L 36.907895,59.500003 L 36.907895,33.010277 z "
     id="path2266"
     style="fill:none;fill-rule:evenodd;stroke:black;stroke-width:0.99999964;stroke-linecap:round;stroke-linejoin:round;stroke-miterlimit:4;stroke-dasharray:none"
     sodipodi:nodetypes="ccccc" />
  <path
     d="M 58.55332,46.269491 L 58.234101,43.970086 L 57.382745,41.834844 L 56.052601,39.973393 L 54.243589,38.549899 L 52.168629,37.673908 L 49.933938,37.400196 L 47.699329,37.673908 L 45.624287,38.549899 L 43.868466,39.973393 L 42.485132,41.834844 L 41.633855,43.970086 L 41.314637,46.269491 L 41.633855,48.514282 L 42.485132,50.704219 L 43.868466,52.510895 L 45.624287,53.934389 L 47.699329,54.810379 L 49.933938,55.138866 L 52.168629,54.810379 L 54.243589,53.934389 L 56.052601,52.510895 L 57.382745,50.704219 L 58.234101,48.514282 L 58.55332,46.269491 z "
     id="path2268"
     style="fill:none;fill-rule:evenodd;stroke:black;stroke-width:0.99999964;stroke-linecap:round;stroke-linejoin:round;stroke-miterlimit:4;stroke-dasharray:none" />
  <path
     d="M 59.989843,46.269491 L 59.617434,43.586825 L 58.659699,41.068323 L 57.063527,38.93316 L 54.935296,37.290648 L 52.541036,36.250414 L 49.933938,35.921927 L 47.32684,36.250414 L 44.932582,37.290648 L 42.85754,38.93316 L 41.261368,41.068323 L 40.250522,43.586825 L 39.878034,46.269491 L 40.250522,48.897464 L 41.261368,51.415966 L 42.85754,53.551129 L 44.932582,55.193641 L 47.32684,56.233874 L 49.933938,56.617136 L 52.541036,56.233874 L 54.935296,55.193641 L 57.063527,53.551129 L 58.659699,51.415966 L 59.617434,48.897464 L 59.989843,46.269491 z "
     id="path2270"
     style="fill:none;fill-rule:evenodd;stroke:black;stroke-width:0.99999964;stroke-linecap:round;stroke-linejoin:round;stroke-miterlimit:4;stroke-dasharray:none" />
  <path
     d="M 55.680192,46.269491 L 55.467354,45.503049 L 54.935296,44.955545 L 54.243589,44.791302 L 53.551962,44.955545 L 53.019904,45.503049 L 52.807066,46.269491 L 53.019904,46.981238 L 53.551962,47.528743 L 54.243589,47.747761 L 54.935296,47.528743 L 55.467354,46.981238 L 55.680192,46.269491 z "
     id="path2272"
     style="fill:none;fill-rule:evenodd;stroke:black;stroke-width:0.99999964;stroke-linecap:round;stroke-linejoin:round;stroke-miterlimit:4;stroke-dasharray:none" />
  <path
     d="M 47.060812,46.269491 L 46.901241,45.503049 L 46.369185,44.955545 L 45.624287,44.791302 L 44.932582,44.955545 L 44.400524,45.503049 L 44.187684,46.269491 L 44.400524,46.981238 L 44.932582,47.528743 L 45.624287,47.747761 L 46.369185,47.528743 L 46.901241,46.981238 L 47.060812,46.269491 z "
     id="path2274"
     style="fill:none;fill-rule:evenodd;stroke:black;stroke-width:0.99999964;stroke-linecap:round;stroke-linejoin:round;stroke-miterlimit:4;stroke-dasharray:none" />
  <path
     d="M 51.157703,39.206872 L 51.157703,37.454891"
     id="path2276"
     style="fill:none;fill-rule:evenodd;stroke:black;stroke-width:0.99999964;stroke-linecap:round;stroke-linejoin:round;stroke-miterlimit:4;stroke-dasharray:none" />
  <path
     d="M 48.763443,39.206872 L 48.763443,37.454891"
     id="path2278"
     style="fill:none;fill-rule:evenodd;stroke:black;stroke-width:0.99999964;stroke-linecap:round;stroke-linejoin:round;stroke-miterlimit:4;stroke-dasharray:none" />
  <path
     d="M 48.763443,39.206872 L 51.157703,39.206872"
     id="path2280"
     style="fill:none;fill-rule:evenodd;stroke:black;stroke-width:0.99999964;stroke-linecap:round;stroke-linejoin:round;stroke-miterlimit:4;stroke-dasharray:none" />
  <path
     d="M 51.157703,53.277416 L 51.157703,55.029397"
     id="path2282"
     style="fill:none;fill-rule:evenodd;stroke:black;stroke-width:0.99999964;stroke-linecap:round;stroke-linejoin:round;stroke-miterlimit:4;stroke-dasharray:none" />
  <path
     d="M 48.763443,53.277416 L 48.763443,55.029397"
     id="path2284"
     style="fill:none;fill-rule:evenodd;stroke:black;stroke-width:0.99999964;stroke-linecap:round;stroke-linejoin:round;stroke-miterlimit:4;stroke-dasharray:none" />
  <path
     d="M 48.763443,53.277416 L 51.157703,53.277416"
     id="path2286"
     style="fill:none;fill-rule:evenodd;stroke:black;stroke-width:0.99999964;stroke-linecap:round;stroke-linejoin:round;stroke-miterlimit:4;stroke-dasharray:none" />
  <path
     d="M 49.878287,33.010277 L 49.878287,0.49999982"
     id="path2288"
     style="fill:none;fill-rule:evenodd;stroke:black;stroke-width:0.99999964;stroke-linecap:round;stroke-linejoin:round;stroke-miterlimit:4;stroke-dasharray:none"
     sodipodi:nodetypes="cc" />
  <path
     d="M 52.4356,111.7578 L 54.1037,111.7578 L 52.4356,111.7578 z "
     id="path2330"
     style="fill:black;fill-rule:evenodd;stroke-width:1;stroke-linecap:round;stroke-linejoin:round;stroke-miterlimit:4;stroke-dasharray:none" />
  <path
     d="M 52.4356,114.0254 L 54.1037,114.0254 L 52.4356,114.0254 z "
     id="path2336"
     style="fill:black;fill-rule:evenodd;stroke-width:1;stroke-linecap:round;stroke-linejoin:round;stroke-miterlimit:4;stroke-dasharray:none" />
</svg>
