<?xml version="1.0" encoding="UTF-8" standalone="no"?>
<!-- Created with Inkscape (http://www.inkscape.org/) -->
<svg
   xmlns:dc="http://purl.org/dc/elements/1.1/"
   xmlns:cc="http://web.resource.org/cc/"
   xmlns:rdf="http://www.w3.org/1999/02/22-rdf-syntax-ns#"
   xmlns:svg="http://www.w3.org/2000/svg"
   xmlns="http://www.w3.org/2000/svg"
   xmlns:sodipodi="http://sodipodi.sourceforge.net/DTD/sodipodi-0.dtd"
   xmlns:inkscape="http://www.inkscape.org/namespaces/inkscape"
   id="svg2"
   sodipodi:version="0.32"
   inkscape:version="0.44.1"
   width="100"
   height="100"
   version="1.0"
   sodipodi:docbase="C:\Documents and Settings\SANJOSE.DOMPROD2\Escritorio"
   sodipodi:docname="zetac.svg">
  <metadata
     id="metadata7">
    <rdf:RDF>
      <cc:Work
         rdf:about="">
        <dc:format>image/svg+xml</dc:format>
        <dc:type
           rdf:resource="http://purl.org/dc/dcmitype/StillImage" />
      </cc:Work>
    </rdf:RDF>
  </metadata>
  <defs
     id="defs5" />
  <sodipodi:namedview
     inkscape:window-height="968"
     inkscape:window-width="1280"
     inkscape:pageshadow="2"
     inkscape:pageopacity="0.0"
     borderopacity="1.0"
     bordercolor="#666666"
     pagecolor="#ffffff"
     id="base"
     showgrid="true"
     inkscape:grid-bbox="true"
     inkscape:grid-points="true"
     gridspacingx="2px"
     gridspacingy="2px"
     gridtolerance="0.5px"
     guidetolerance="0.5px"
     inkscape:guide-points="true"
     inkscape:zoom="5.12"
     inkscape:cx="50.094082"
     inkscape:cy="54.479977"
     inkscape:window-x="-4"
     inkscape:window-y="26"
     inkscape:current-layer="svg2" />
  <path
     d="M 73.764838,66.4423 L 74.497638,66.4423 L 73.764838,66.4423 z "
     id="path1172"
     style="fill:black;fill-rule:evenodd;stroke-width:1;stroke-linecap:round;stroke-linejoin:round;stroke-miterlimit:4;stroke-dasharray:none" />
  <path
     d="M 74.497638,66.4423 L 75.230438,66.4423 L 74.497638,66.4423 z "
     id="path1174"
     style="fill:black;fill-rule:evenodd;stroke-width:1;stroke-linecap:round;stroke-linejoin:round;stroke-miterlimit:4;stroke-dasharray:none" />
  <path
     d="M 98.406438,85.8974 L 99.139238,85.8974 L 98.406438,85.8974 z "
     id="path1810"
     style="fill:black;fill-rule:evenodd;stroke-width:1;stroke-linecap:round;stroke-linejoin:round;stroke-miterlimit:4;stroke-dasharray:none" />
  <path
     d="M 98.406438,85.8974 L 99.139238,85.8974 L 98.406438,85.8974 z "
     id="path1812"
     style="fill:black;fill-rule:evenodd;stroke-width:1;stroke-linecap:round;stroke-linejoin:round;stroke-miterlimit:4;stroke-dasharray:none" />
  <path
     d="M 90.574238,85.8974 L 91.311238,85.8974 L 90.574238,85.8974 z "
     id="path1826"
     style="fill:black;fill-rule:evenodd;stroke-width:1;stroke-linecap:round;stroke-linejoin:round;stroke-miterlimit:4;stroke-dasharray:none" />
  <path
     d="M 90.574238,85.8974 L 91.311238,85.8974 L 90.574238,85.8974 z "
     id="path1828"
     style="fill:black;fill-rule:evenodd;stroke-width:1;stroke-linecap:round;stroke-linejoin:round;stroke-miterlimit:4;stroke-dasharray:none" />
  <path
     d="M 94.321638,69.6595 L 95.054538,69.6595 L 94.321638,69.6595 z "
     id="path1940"
     style="fill:black;fill-rule:evenodd;stroke-width:1;stroke-linecap:round;stroke-linejoin:round;stroke-miterlimit:4;stroke-dasharray:none" />
  <path
     d="M 95.054538,69.6595 L 95.787338,69.6595 L 95.054538,69.6595 z "
     id="path1942"
     style="fill:black;fill-rule:evenodd;stroke-width:1;stroke-linecap:round;stroke-linejoin:round;stroke-miterlimit:4;stroke-dasharray:none" />
  <path
     d="M 94.321638,78.3371 L 95.054538,78.3371 L 94.321638,78.3371 z "
     id="path1960"
     style="fill:black;fill-rule:evenodd;stroke-width:1;stroke-linecap:round;stroke-linejoin:round;stroke-miterlimit:4;stroke-dasharray:none" />
  <path
     d="M 95.054538,78.3371 L 95.787338,78.3371 L 95.054538,78.3371 z "
     id="path1962"
     style="fill:black;fill-rule:evenodd;stroke-width:1;stroke-linecap:round;stroke-linejoin:round;stroke-miterlimit:4;stroke-dasharray:none" />
  <path
     d="M 49.718938,37.5 L 49.718938,0.49999997"
     id="path2212"
     style="fill:none;fill-rule:evenodd;stroke:black;stroke-width:0.99999994;stroke-linecap:round;stroke-linejoin:round;stroke-miterlimit:4;stroke-dasharray:none"
     sodipodi:nodetypes="cc" />
  <path
     d="M 30.773438,37.5 L 68.664438,37.5 L 68.664438,74.5 L 30.773438,74.5 L 30.773438,37.5 z "
     id="path2214"
     style="fill:none;fill-rule:evenodd;stroke:black;stroke-width:0.99999994;stroke-linecap:round;stroke-linejoin:round;stroke-miterlimit:4;stroke-dasharray:none"
     sodipodi:nodetypes="ccccc" />
  <path
     d="M 62.014238,55.3084 L 61.787538,52.8186 L 61.107138,50.5026 L 59.973338,48.3602 L 58.442638,46.4494 L 56.571738,44.8861 L 54.474038,43.7281 L 52.206338,43.0332 L 49.768538,42.8016 L 47.387438,43.0332 L 45.119638,43.7281 L 43.022038,44.8861 L 41.151138,46.4494 L 39.620438,48.3602 L 38.486538,50.5026 L 37.806238,52.8186 L 37.579438,55.3084 L 37.806238,57.7403 L 38.486538,60.0563 L 39.620438,62.2566 L 41.151138,64.1095 L 43.022038,65.6728 L 45.119638,66.8308 L 47.387438,67.5257 L 49.768538,67.8152 L 52.206338,67.5257 L 54.474038,66.8308 L 56.571738,65.6728 L 58.442638,64.1095 L 59.973338,62.2566 L 61.107138,60.0563 L 61.787538,57.7403 L 62.014238,55.3084 z "
     id="path2216"
     style="fill:none;fill-rule:evenodd;stroke:black;stroke-width:0.99999994;stroke-linecap:round;stroke-linejoin:round;stroke-miterlimit:4;stroke-dasharray:none" />
  <path
     d="M 64.055238,55.3084 L 63.771738,52.4133 L 62.978038,49.6919 L 61.674138,47.2022 L 59.916638,44.944 L 57.705538,43.149 L 55.267738,41.8173 L 52.603138,40.9488 L 49.768538,40.7172 L 46.990538,40.9488 L 44.325938,41.8173 L 41.888138,43.149 L 39.677138,44.944 L 37.919638,47.2022 L 36.615738,49.6919 L 35.822038,52.4133 L 35.538538,55.3084 L 35.822038,58.1456 L 36.615738,60.867 L 37.919638,63.4146 L 39.677138,65.6149 L 41.888138,67.4099 L 44.325938,68.7416 L 46.990538,69.6101 L 49.768538,69.8996 L 52.603138,69.6101 L 55.267738,68.7416 L 57.705538,67.4099 L 59.916638,65.6149 L 61.674138,63.4146 L 62.978038,60.867 L 63.771738,58.1456 L 64.055238,55.3084 z "
     id="path2218"
     style="fill:none;fill-rule:evenodd;stroke:black;stroke-width:0.99999994;stroke-linecap:round;stroke-linejoin:round;stroke-miterlimit:4;stroke-dasharray:none" />
  <path
     d="M 51.809438,49.055 L 51.582738,48.0128 L 50.789038,47.2022 L 49.768538,46.9706 L 48.804738,47.2022 L 48.011038,48.0128 L 47.784238,49.055 L 48.011038,50.0972 L 48.804738,50.85 L 49.768538,51.1395 L 50.789038,50.85 L 51.582738,50.0972 L 51.809438,49.055 z "
     id="path2220"
     style="fill:none;fill-rule:evenodd;stroke:black;stroke-width:0.99999994;stroke-linecap:round;stroke-linejoin:round;stroke-miterlimit:4;stroke-dasharray:none" />
  <path
     d="M 57.932338,55.3084 L 57.705538,54.2662 L 56.911838,53.4555 L 55.891438,53.2239 L 54.870938,53.4555 L 54.133938,54.2662 L 53.850438,55.3084 L 54.133938,56.3506 L 54.870938,57.1034 L 55.891438,57.3929 L 56.911838,57.1034 L 57.705538,56.3506 L 57.932338,55.3084 z "
     id="path2222"
     style="fill:none;fill-rule:evenodd;stroke:black;stroke-width:0.99999994;stroke-linecap:round;stroke-linejoin:round;stroke-miterlimit:4;stroke-dasharray:none" />
  <path
     d="M 45.743338,55.3084 L 45.459838,54.2662 L 44.722838,53.4555 L 43.702338,53.2239 L 42.681838,53.4555 L 41.888138,54.2662 L 41.661438,55.3084 L 41.888138,56.3506 L 42.681838,57.1034 L 43.702338,57.3929 L 44.722838,57.1034 L 45.459838,56.3506 L 45.743338,55.3084 z "
     id="path2224"
     style="fill:none;fill-rule:evenodd;stroke:black;stroke-width:0.99999994;stroke-linecap:round;stroke-linejoin:round;stroke-miterlimit:4;stroke-dasharray:none" />
  <path
     d="M 51.015738,61.5618 L 50.845738,60.9249 L 50.392138,60.4617 L 49.768538,60.2879 L 49.201638,60.4617 L 48.748038,60.9249 L 48.577938,61.5618 L 48.748038,62.1408 L 49.201638,62.604 L 49.768538,62.7777 L 50.392138,62.604 L 50.845738,62.1408 L 51.015738,61.5618 z "
     id="path2226"
     style="fill:none;fill-rule:evenodd;stroke:black;stroke-width:0.99999994;stroke-linecap:round;stroke-linejoin:round;stroke-miterlimit:4;stroke-dasharray:none" />
  <path
     d="M 51.629838,101.4563 L 53.149638,101.4563 L 51.629838,101.4563 z "
     id="path2330"
     style="fill:black;fill-rule:evenodd;stroke-width:1;stroke-linecap:round;stroke-linejoin:round;stroke-miterlimit:4;stroke-dasharray:none" />
  <path
     d="M 51.629838,103.514 L 53.149638,103.514 L 51.629838,103.514 z "
     id="path2336"
     style="fill:black;fill-rule:evenodd;stroke-width:1;stroke-linecap:round;stroke-linejoin:round;stroke-miterlimit:4;stroke-dasharray:none" />
</svg>
